<mxfile host="app.diagrams.net" agent="Mozilla/5.0 (Windows NT 10.0; Win64; x64) AppleWebKit/537.36 (KHTML, like Gecko) Chrome/138.0.0.0 Safari/537.36 Edg/138.0.0.0" version="28.0.9">
  <diagram name="Page-1" id="R0f8B2HDxWiiLUEPOYsN">
    <mxGraphModel dx="864" dy="1574" grid="1" gridSize="10" guides="1" tooltips="1" connect="1" arrows="1" fold="1" page="1" pageScale="1" pageWidth="850" pageHeight="1100" math="0" shadow="0">
      <root>
        <mxCell id="0" />
        <mxCell id="1" parent="0" />
        <mxCell id="gwkNHLJZkJ7YjrMuUj9A-17" style="edgeStyle=orthogonalEdgeStyle;rounded=0;orthogonalLoop=1;jettySize=auto;html=1;" edge="1" parent="1">
          <mxGeometry relative="1" as="geometry">
            <mxPoint x="410" y="350" as="targetPoint" />
            <mxPoint x="410" y="350" as="sourcePoint" />
          </mxGeometry>
        </mxCell>
        <mxCell id="gwkNHLJZkJ7YjrMuUj9A-3" value="" style="rhombus;whiteSpace=wrap;html=1;" vertex="1" parent="1">
          <mxGeometry x="370" y="410" width="80" height="80" as="geometry" />
        </mxCell>
        <mxCell id="gwkNHLJZkJ7YjrMuUj9A-27" value="" style="endArrow=none;html=1;rounded=0;" edge="1" parent="1">
          <mxGeometry width="50" height="50" relative="1" as="geometry">
            <mxPoint x="410" y="160" as="sourcePoint" />
            <mxPoint x="410" y="60" as="targetPoint" />
          </mxGeometry>
        </mxCell>
        <mxCell id="gwkNHLJZkJ7YjrMuUj9A-28" value="" style="rounded=1;whiteSpace=wrap;html=1;" vertex="1" parent="1">
          <mxGeometry x="350" y="140" width="120" height="60" as="geometry" />
        </mxCell>
        <mxCell id="gwkNHLJZkJ7YjrMuUj9A-30" value="" style="endArrow=none;html=1;rounded=0;entryX=0.5;entryY=1;entryDx=0;entryDy=0;exitX=0.439;exitY=-0.05;exitDx=0;exitDy=0;exitPerimeter=0;" edge="1" parent="1" target="gwkNHLJZkJ7YjrMuUj9A-28">
          <mxGeometry width="50" height="50" relative="1" as="geometry">
            <mxPoint x="409.02" y="267" as="sourcePoint" />
            <mxPoint x="430" y="290" as="targetPoint" />
          </mxGeometry>
        </mxCell>
        <mxCell id="gwkNHLJZkJ7YjrMuUj9A-31" value="" style="endArrow=none;html=1;rounded=0;exitX=0.5;exitY=0;exitDx=0;exitDy=0;entryX=0.444;entryY=1.017;entryDx=0;entryDy=0;entryPerimeter=0;" edge="1" parent="1" source="gwkNHLJZkJ7YjrMuUj9A-3">
          <mxGeometry width="50" height="50" relative="1" as="geometry">
            <mxPoint x="380" y="340" as="sourcePoint" />
            <mxPoint x="409.9200000000001" y="331.02" as="targetPoint" />
          </mxGeometry>
        </mxCell>
        <mxCell id="gwkNHLJZkJ7YjrMuUj9A-32" value="" style="endArrow=none;html=1;rounded=0;" edge="1" parent="1" source="gwkNHLJZkJ7YjrMuUj9A-3">
          <mxGeometry width="50" height="50" relative="1" as="geometry">
            <mxPoint x="380" y="540" as="sourcePoint" />
            <mxPoint x="520" y="450" as="targetPoint" />
          </mxGeometry>
        </mxCell>
        <mxCell id="gwkNHLJZkJ7YjrMuUj9A-33" value="ya" style="text;html=1;align=center;verticalAlign=middle;whiteSpace=wrap;rounded=0;" vertex="1" parent="1">
          <mxGeometry x="520" y="440" width="60" height="30" as="geometry" />
        </mxCell>
        <mxCell id="gwkNHLJZkJ7YjrMuUj9A-36" value="" style="whiteSpace=wrap;html=1;aspect=fixed;" vertex="1" parent="1">
          <mxGeometry x="650" y="410" width="80" height="80" as="geometry" />
        </mxCell>
        <mxCell id="gwkNHLJZkJ7YjrMuUj9A-38" value="" style="endArrow=none;html=1;rounded=0;entryX=0.013;entryY=0.588;entryDx=0;entryDy=0;exitX=1;exitY=0.5;exitDx=0;exitDy=0;entryPerimeter=0;" edge="1" parent="1" source="gwkNHLJZkJ7YjrMuUj9A-33" target="gwkNHLJZkJ7YjrMuUj9A-36">
          <mxGeometry width="50" height="50" relative="1" as="geometry">
            <mxPoint x="360" y="510" as="sourcePoint" />
            <mxPoint x="410" y="460" as="targetPoint" />
          </mxGeometry>
        </mxCell>
        <mxCell id="gwkNHLJZkJ7YjrMuUj9A-40" value="" style="endArrow=none;html=1;rounded=0;entryX=0.008;entryY=0.65;entryDx=0;entryDy=0;entryPerimeter=0;exitX=0.875;exitY=0.625;exitDx=0;exitDy=0;exitPerimeter=0;" edge="1" parent="1" source="gwkNHLJZkJ7YjrMuUj9A-36">
          <mxGeometry width="50" height="50" relative="1" as="geometry">
            <mxPoint x="680" y="510" as="sourcePoint" />
            <mxPoint x="810.96" y="459" as="targetPoint" />
          </mxGeometry>
        </mxCell>
        <mxCell id="gwkNHLJZkJ7YjrMuUj9A-41" value="" style="rounded=0;whiteSpace=wrap;html=1;" vertex="1" parent="1">
          <mxGeometry x="800" y="420" width="120" height="60" as="geometry" />
        </mxCell>
        <mxCell id="gwkNHLJZkJ7YjrMuUj9A-47" value="" style="rounded=0;whiteSpace=wrap;html=1;" vertex="1" parent="1">
          <mxGeometry x="990" y="435" width="80" height="30" as="geometry" />
        </mxCell>
        <mxCell id="gwkNHLJZkJ7YjrMuUj9A-48" value="" style="endArrow=none;html=1;rounded=0;entryX=0;entryY=0.5;entryDx=0;entryDy=0;exitX=1;exitY=0.5;exitDx=0;exitDy=0;" edge="1" parent="1" source="gwkNHLJZkJ7YjrMuUj9A-41" target="gwkNHLJZkJ7YjrMuUj9A-47">
          <mxGeometry width="50" height="50" relative="1" as="geometry">
            <mxPoint x="920" y="460" as="sourcePoint" />
            <mxPoint x="730" y="460" as="targetPoint" />
          </mxGeometry>
        </mxCell>
        <mxCell id="gwkNHLJZkJ7YjrMuUj9A-51" value="" style="endArrow=none;html=1;rounded=0;entryX=0.5;entryY=1;entryDx=0;entryDy=0;" edge="1" parent="1" target="gwkNHLJZkJ7YjrMuUj9A-47">
          <mxGeometry width="50" height="50" relative="1" as="geometry">
            <mxPoint x="1030" y="600" as="sourcePoint" />
            <mxPoint x="730" y="450" as="targetPoint" />
          </mxGeometry>
        </mxCell>
        <mxCell id="gwkNHLJZkJ7YjrMuUj9A-53" value="" style="endArrow=none;html=1;rounded=0;entryX=0.5;entryY=1;entryDx=0;entryDy=0;" edge="1" parent="1" target="gwkNHLJZkJ7YjrMuUj9A-3">
          <mxGeometry width="50" height="50" relative="1" as="geometry">
            <mxPoint x="410" y="560" as="sourcePoint" />
            <mxPoint x="610" y="470" as="targetPoint" />
          </mxGeometry>
        </mxCell>
        <mxCell id="gwkNHLJZkJ7YjrMuUj9A-54" value="tidak" style="text;html=1;align=center;verticalAlign=middle;whiteSpace=wrap;rounded=0;" vertex="1" parent="1">
          <mxGeometry x="380" y="580" width="60" height="30" as="geometry" />
        </mxCell>
        <mxCell id="gwkNHLJZkJ7YjrMuUj9A-55" value="" style="endArrow=classic;startArrow=classic;html=1;rounded=0;entryX=0.663;entryY=1.038;entryDx=0;entryDy=0;entryPerimeter=0;" edge="1" parent="1" target="gwkNHLJZkJ7YjrMuUj9A-36">
          <mxGeometry width="50" height="50" relative="1" as="geometry">
            <mxPoint x="590" y="600" as="sourcePoint" />
            <mxPoint x="610" y="470" as="targetPoint" />
            <Array as="points">
              <mxPoint x="700" y="600" />
            </Array>
          </mxGeometry>
        </mxCell>
        <mxCell id="gwkNHLJZkJ7YjrMuUj9A-56" value="ya" style="text;html=1;align=center;verticalAlign=middle;whiteSpace=wrap;rounded=0;" vertex="1" parent="1">
          <mxGeometry x="520" y="580" width="60" height="30" as="geometry" />
        </mxCell>
        <mxCell id="gwkNHLJZkJ7YjrMuUj9A-57" value="" style="endArrow=none;html=1;rounded=0;entryX=0;entryY=0.5;entryDx=0;entryDy=0;exitX=1;exitY=0.5;exitDx=0;exitDy=0;" edge="1" parent="1" source="gwkNHLJZkJ7YjrMuUj9A-54" target="gwkNHLJZkJ7YjrMuUj9A-56">
          <mxGeometry width="50" height="50" relative="1" as="geometry">
            <mxPoint x="220" y="680" as="sourcePoint" />
            <mxPoint x="270" y="630" as="targetPoint" />
          </mxGeometry>
        </mxCell>
        <mxCell id="gwkNHLJZkJ7YjrMuUj9A-60" value="" style="endArrow=none;html=1;rounded=0;exitX=0.5;exitY=0;exitDx=0;exitDy=0;entryX=0.5;entryY=1;entryDx=0;entryDy=0;" edge="1" parent="1" target="gwkNHLJZkJ7YjrMuUj9A-54">
          <mxGeometry width="50" height="50" relative="1" as="geometry">
            <mxPoint x="410" y="710" as="sourcePoint" />
            <mxPoint x="610" y="580" as="targetPoint" />
          </mxGeometry>
        </mxCell>
        <mxCell id="gwkNHLJZkJ7YjrMuUj9A-92" style="edgeStyle=orthogonalEdgeStyle;rounded=0;orthogonalLoop=1;jettySize=auto;html=1;exitX=0;exitY=0.5;exitDx=0;exitDy=0;" edge="1" parent="1" source="gwkNHLJZkJ7YjrMuUj9A-61">
          <mxGeometry relative="1" as="geometry">
            <mxPoint x="370" y="740" as="targetPoint" />
          </mxGeometry>
        </mxCell>
        <mxCell id="gwkNHLJZkJ7YjrMuUj9A-61" value="" style="rhombus;whiteSpace=wrap;html=1;" vertex="1" parent="1">
          <mxGeometry x="355" y="710" width="110" height="80" as="geometry" />
        </mxCell>
        <mxCell id="gwkNHLJZkJ7YjrMuUj9A-67" value="pengembangan produk" style="text;html=1;align=center;verticalAlign=middle;whiteSpace=wrap;rounded=0;" vertex="1" parent="1">
          <mxGeometry x="380" y="290" width="60" height="30" as="geometry" />
        </mxCell>
        <mxCell id="gwkNHLJZkJ7YjrMuUj9A-76" value="" style="rounded=0;whiteSpace=wrap;html=1;" vertex="1" parent="1">
          <mxGeometry x="360" y="275" width="120" height="60" as="geometry" />
        </mxCell>
        <mxCell id="gwkNHLJZkJ7YjrMuUj9A-77" value="input nama hanif" style="ellipse;whiteSpace=wrap;html=1;" vertex="1" parent="1">
          <mxGeometry x="350" y="-20" width="120" height="80" as="geometry" />
        </mxCell>
        <mxCell id="gwkNHLJZkJ7YjrMuUj9A-78" value="umur" style="text;html=1;align=center;verticalAlign=middle;whiteSpace=wrap;rounded=0;" vertex="1" parent="1">
          <mxGeometry x="380" y="155" width="60" height="30" as="geometry" />
        </mxCell>
        <mxCell id="gwkNHLJZkJ7YjrMuUj9A-81" value="tgl lahir" style="text;html=1;align=center;verticalAlign=middle;whiteSpace=wrap;rounded=0;" vertex="1" parent="1">
          <mxGeometry x="380" y="300" width="60" height="30" as="geometry" />
        </mxCell>
        <mxCell id="gwkNHLJZkJ7YjrMuUj9A-82" value="tempatlahir" style="text;html=1;align=center;verticalAlign=middle;whiteSpace=wrap;rounded=0;" vertex="1" parent="1">
          <mxGeometry x="380" y="440" width="60" height="30" as="geometry" />
        </mxCell>
        <mxCell id="gwkNHLJZkJ7YjrMuUj9A-83" value="tempat tinggal" style="text;html=1;align=center;verticalAlign=middle;whiteSpace=wrap;rounded=0;" vertex="1" parent="1">
          <mxGeometry x="660" y="435" width="60" height="30" as="geometry" />
        </mxCell>
        <mxCell id="gwkNHLJZkJ7YjrMuUj9A-85" value="asal" style="text;html=1;align=center;verticalAlign=middle;whiteSpace=wrap;rounded=0;" vertex="1" parent="1">
          <mxGeometry x="830" y="440" width="60" height="30" as="geometry" />
        </mxCell>
        <mxCell id="gwkNHLJZkJ7YjrMuUj9A-86" value="org tua" style="text;html=1;align=center;verticalAlign=middle;whiteSpace=wrap;rounded=0;" vertex="1" parent="1">
          <mxGeometry x="1000" y="435" width="60" height="30" as="geometry" />
        </mxCell>
        <mxCell id="gwkNHLJZkJ7YjrMuUj9A-87" value="" style="shape=parallelogram;perimeter=parallelogramPerimeter;whiteSpace=wrap;html=1;fixedSize=1;" vertex="1" parent="1">
          <mxGeometry x="960" y="600" width="120" height="60" as="geometry" />
        </mxCell>
        <mxCell id="gwkNHLJZkJ7YjrMuUj9A-88" value="nama ke dua org tua" style="text;html=1;align=center;verticalAlign=middle;whiteSpace=wrap;rounded=0;" vertex="1" parent="1">
          <mxGeometry x="980" y="615" width="60" height="30" as="geometry" />
        </mxCell>
        <mxCell id="gwkNHLJZkJ7YjrMuUj9A-93" value="kesalahan menginput" style="text;html=1;align=center;verticalAlign=middle;whiteSpace=wrap;rounded=0;" vertex="1" parent="1">
          <mxGeometry x="380" y="750" width="60" height="30" as="geometry" />
        </mxCell>
        <mxCell id="gwkNHLJZkJ7YjrMuUj9A-94" value="" style="endArrow=none;html=1;rounded=0;" edge="1" parent="1" target="gwkNHLJZkJ7YjrMuUj9A-61">
          <mxGeometry width="50" height="50" relative="1" as="geometry">
            <mxPoint x="410" y="870" as="sourcePoint" />
            <mxPoint x="730" y="640" as="targetPoint" />
          </mxGeometry>
        </mxCell>
        <mxCell id="gwkNHLJZkJ7YjrMuUj9A-95" value="selesai" style="text;html=1;align=center;verticalAlign=middle;whiteSpace=wrap;rounded=0;" vertex="1" parent="1">
          <mxGeometry x="380" y="890" width="60" height="30" as="geometry" />
        </mxCell>
      </root>
    </mxGraphModel>
  </diagram>
</mxfile>
